<?xml version="1.0" encoding="utf-8"?>
<!-- Generator: Adobe Illustrator 25.0.0, SVG Export Plug-In . SVG Version: 6.00 Build 0)  -->
<svg version="1.1" id="Layer_1" xmlns="http://www.w3.org/2000/svg" xmlns:xlink="http://www.w3.org/1999/xlink" x="0px" y="0px"
	 viewBox="0 0 191.23 152.85" style="enable-background:new 0 0 191.23 152.85;" xml:space="preserve">
<style type="text/css">
	.st0{fill:#FFFFFF;}
</style>
<g>
	<path class="st0" d="M26.57,25.72c0,22.99,0,44.99,0,66.99c0,6.96-0.02,13.92,0,20.88c0.03,8.94,3.94,13.46,11.97,13.87
		c8.57,0.44,14.47-4.41,14.83-13.05c0.42-10.09,0.33-20.22,0.12-30.32c-0.07-3.57,0.62-4.86,4.53-4.73
		c9.6,0.32,19.22,0.13,28.84,0.08c1.91-0.01,3.27,0.25,4.52,2.1c15.48,23.08,31.08,46.08,46.64,69.11c0.25,0.37,0.3,0.87,0.57,1.67
		c-13.45,1.97-24.2-2.16-32.33-12.92c-4.31-5.7-7.39-12.14-10.98-18.27c-2.68-4.59-5.49-9.11-10.35-11.79
		c-7.32-4.04-12.28-1.67-13.44,6.55c-0.67,4.75-0.95,9.56-1.49,14.33c-2.45,21.84-19.01,25-34.23,21.29
		c-6.44-1.57-11.74-5.29-16.25-10.06C-9.02,111.29-5.92,53.79,26.57,25.72z"/>
	<path class="st0" d="M191.21,75.85c-0.7,28.8-7.35,47.74-23.25,62.94c-2.82,2.7-4.28,3.32-6.86-0.57
		c-13.83-20.78-27.9-41.4-42.13-61.9c-2.22-3.19-1.48-4.06,1.54-5.47c16.68-7.85,31.41-25.59,25.63-53.43
		c-0.16-0.75-0.2-2.02,0.21-2.3c1.33-0.91,2.5,0.24,3.55,0.91c11.31,7.16,21.12,15.96,28.69,27.06
		C186.8,55.13,191.56,68.3,191.21,75.85z"/>
	<path class="st0" d="M53.59,31.78c0-6.96,0-13.91,0-20.87c0-1.8-0.23-3.42,2.2-4.31C68.8,1.83,81.98-1.56,96.01,0.73
		c14.63,2.39,22.5,11.86,22.62,27.26c0.12,14.9-8.12,25.3-22.49,27.53c-13.31,2.07-26.78,0.49-40.18,0.93
		c-2.62,0.08-2.38-1.62-2.38-3.31C53.59,46.02,53.59,38.9,53.59,31.78z"/>
</g>
</svg>
